<svg width="250" height="100" viewBox="0 0 250 100" fill="none" xmlns="http://www.w3.org/2000/svg">
<path d="M215.144 34.83V35.388H214.034V39H213.35V35.388H212.234V34.83H215.144ZM220.229 34.83V39H219.545V36.144L218.273 39H217.799L216.521 36.144V39H215.837V34.83H216.575L218.039 38.1L219.497 34.83H220.229Z" fill="white"/>
<path d="M63.068 37.268L56.438 61H50.828L46.374 44.102L41.716 61L36.14 61.034L29.748 37.268H34.848L39.03 55.696L43.858 37.268H49.162L53.718 55.594L57.934 37.268H63.068ZM83.6861 51.174C83.6861 51.854 83.6407 52.466 83.5501 53.01H69.7801C69.8934 54.37 70.3694 55.4353 71.2081 56.206C72.0467 56.9767 73.0781 57.362 74.3021 57.362C76.0701 57.362 77.3281 56.6027 78.0761 55.084H83.2101C82.6661 56.8973 81.6234 58.3933 80.0821 59.572C78.5407 60.728 76.6481 61.306 74.4041 61.306C72.5907 61.306 70.9587 60.9093 69.5081 60.116C68.0801 59.3 66.9581 58.1553 66.1421 56.682C65.3487 55.2087 64.9521 53.5087 64.9521 51.582C64.9521 49.6327 65.3487 47.9213 66.1421 46.448C66.9354 44.9747 68.0461 43.8413 69.4741 43.048C70.9021 42.2547 72.5454 41.858 74.4041 41.858C76.1947 41.858 77.7927 42.2433 79.1981 43.014C80.6261 43.7847 81.7254 44.884 82.4961 46.312C83.2894 47.7173 83.6861 49.338 83.6861 51.174ZM78.7561 49.814C78.7334 48.59 78.2914 47.6153 77.4301 46.89C76.5687 46.142 75.5147 45.768 74.2681 45.768C73.0894 45.768 72.0921 46.1307 71.2761 46.856C70.4827 47.5587 69.9954 48.5447 69.8141 49.814H78.7561ZM91.9205 44.918C92.5325 44.0113 93.3711 43.2747 94.4365 42.708C95.5245 42.1413 96.7598 41.858 98.1425 41.858C99.7518 41.858 101.202 42.2547 102.494 43.048C103.809 43.8413 104.84 44.9747 105.588 46.448C106.359 47.8987 106.744 49.5873 106.744 51.514C106.744 53.4407 106.359 55.152 105.588 56.648C104.84 58.1213 103.809 59.266 102.494 60.082C101.202 60.898 99.7518 61.306 98.1425 61.306C96.7371 61.306 95.5018 61.034 94.4365 60.49C93.3938 59.9233 92.5551 59.198 91.9205 58.314V61H87.1605V35.84H91.9205V44.918ZM101.882 51.514C101.882 50.3807 101.644 49.406 101.168 48.59C100.715 47.7513 100.103 47.1167 99.3325 46.686C98.5845 46.2553 97.7685 46.04 96.8845 46.04C96.0231 46.04 95.2071 46.2667 94.4365 46.72C93.6885 47.1507 93.0765 47.7853 92.6005 48.624C92.1471 49.4627 91.9205 50.4487 91.9205 51.582C91.9205 52.7153 92.1471 53.7013 92.6005 54.54C93.0765 55.3787 93.6885 56.0247 94.4365 56.478C95.2071 56.9087 96.0231 57.124 96.8845 57.124C97.7685 57.124 98.5845 56.8973 99.3325 56.444C100.103 55.9907 100.715 55.3447 101.168 54.506C101.644 53.6673 101.882 52.67 101.882 51.514ZM136.077 37.268V61H131.317V45.564L124.959 61H121.355L114.963 45.564V61H110.203V37.268H115.609L123.157 54.914L130.705 37.268H136.077ZM143.198 39.92C142.359 39.92 141.656 39.6593 141.09 39.138C140.546 38.594 140.274 37.9253 140.274 37.132C140.274 36.3387 140.546 35.6813 141.09 35.16C141.656 34.616 142.359 34.344 143.198 34.344C144.036 34.344 144.728 34.616 145.272 35.16C145.838 35.6813 146.122 36.3387 146.122 37.132C146.122 37.9253 145.838 38.594 145.272 39.138C144.728 39.6593 144.036 39.92 143.198 39.92ZM145.544 42.164V61H140.784V42.164H145.544ZM160.684 41.892C162.928 41.892 164.742 42.606 166.124 44.034C167.507 45.4393 168.198 47.4113 168.198 49.95V61H163.438V50.596C163.438 49.1 163.064 47.9553 162.316 47.162C161.568 46.346 160.548 45.938 159.256 45.938C157.942 45.938 156.899 46.346 156.128 47.162C155.38 47.9553 155.006 49.1 155.006 50.596V61H150.246V42.164H155.006V44.51C155.641 43.694 156.446 43.0593 157.42 42.606C158.418 42.13 159.506 41.892 160.684 41.892ZM171.501 51.514C171.501 49.61 171.875 47.9213 172.623 46.448C173.394 44.9747 174.436 43.8413 175.751 43.048C177.066 42.2547 178.528 41.858 180.137 41.858C181.361 41.858 182.528 42.13 183.639 42.674C184.75 43.1953 185.634 43.898 186.291 44.782V35.84H191.119V61H186.291V58.212C185.702 59.1413 184.874 59.8893 183.809 60.456C182.744 61.0227 181.508 61.306 180.103 61.306C178.516 61.306 177.066 60.898 175.751 60.082C174.436 59.266 173.394 58.1213 172.623 56.648C171.875 55.152 171.501 53.4407 171.501 51.514ZM186.325 51.582C186.325 50.426 186.098 49.44 185.645 48.624C185.192 47.7853 184.58 47.1507 183.809 46.72C183.038 46.2667 182.211 46.04 181.327 46.04C180.443 46.04 179.627 46.2553 178.879 46.686C178.131 47.1167 177.519 47.7513 177.043 48.59C176.59 49.406 176.363 50.3807 176.363 51.514C176.363 52.6473 176.59 53.6447 177.043 54.506C177.519 55.3447 178.131 55.9907 178.879 56.444C179.65 56.8973 180.466 57.124 181.327 57.124C182.211 57.124 183.038 56.9087 183.809 56.478C184.58 56.0247 185.192 55.39 185.645 54.574C186.098 53.7353 186.325 52.738 186.325 51.582ZM202.976 61.306C201.435 61.306 200.052 61.034 198.828 60.49C197.604 59.9233 196.629 59.164 195.904 58.212C195.201 57.26 194.816 56.206 194.748 55.05H199.542C199.633 55.7753 199.984 56.376 200.596 56.852C201.231 57.328 202.013 57.566 202.942 57.566C203.849 57.566 204.551 57.3847 205.05 57.022C205.571 56.6593 205.832 56.1947 205.832 55.628C205.832 55.016 205.515 54.5627 204.88 54.268C204.268 53.9507 203.282 53.6107 201.922 53.248C200.517 52.908 199.361 52.5567 198.454 52.194C197.57 51.8313 196.799 51.276 196.142 50.528C195.507 49.78 195.19 48.7713 195.19 47.502C195.19 46.4593 195.485 45.5073 196.074 44.646C196.686 43.7847 197.547 43.1047 198.658 42.606C199.791 42.1073 201.117 41.858 202.636 41.858C204.88 41.858 206.671 42.4247 208.008 43.558C209.345 44.6687 210.082 46.176 210.218 48.08H205.662C205.594 47.332 205.277 46.7427 204.71 46.312C204.166 45.8587 203.429 45.632 202.5 45.632C201.639 45.632 200.97 45.7907 200.494 46.108C200.041 46.4253 199.814 46.8673 199.814 47.434C199.814 48.0687 200.131 48.556 200.766 48.896C201.401 49.2133 202.387 49.542 203.724 49.882C205.084 50.222 206.206 50.5733 207.09 50.936C207.974 51.2987 208.733 51.8653 209.368 52.636C210.025 53.384 210.365 54.3813 210.388 55.628C210.388 56.716 210.082 57.6907 209.47 58.552C208.881 59.4133 208.019 60.0933 206.886 60.592C205.775 61.068 204.472 61.306 202.976 61.306Z" fill="white"/>
</svg>
